<svg id="Capa_1" enable-background="new 0 0 512 512" height="512" viewBox="0 0 512 512" width="512" xmlns="http://www.w3.org/2000/svg"><g><path d="m256 7.5c-137.243 0-248.5 111.257-248.5 248.5s111.257 248.5 248.5 248.5 248.5-111.257 248.5-248.5-111.257-248.5-248.5-248.5zm0 461.876c-117.844 0-213.376-95.532-213.376-213.376s95.532-213.376 213.376-213.376 213.376 95.532 213.376 213.376-95.532 213.376-213.376 213.376z" fill="#e28086"/><path d="m346.544 24.511c61.018 37.744 104.482 101.157 115.321 175.169 4.897 17.942 7.512 36.825 7.512 56.32 0 90.107-55.853 167.168-134.826 198.453-35.236 19.161-75.622 30.047-118.551 30.047-31.948 0-62.488-6.029-90.544-17.011 37.937 23.466 82.659 37.011 130.544 37.011 137.243 0 248.5-111.257 248.5-248.5 0-105.295-65.488-195.294-157.956-231.489z" fill="#dd636e"/><circle cx="256" cy="255.594" fill="#e28086" r="39.115"/><path d="m260.262 216.709c3.093 5.599 4.853 12.036 4.853 18.885 0 21.603-17.513 39.115-39.115 39.115-1.44 0-2.862-.079-4.262-.23 6.662 12.061 19.508 20.23 34.262 20.23 21.603 0 39.115-17.512 39.115-39.115 0-20.163-15.255-36.761-34.853-38.885z" fill="#dd636e"/><g fill="#e28086"><path d="m282.475 97.187c-10.441 0-16.534 3.61-22.223 9.426-2.346 2.399-6.159 2.399-8.505 0-5.69-5.817-11.785-9.426-22.224-9.426-13.215 0-29.629 12.388-31.165 31.528v6.595c0 23.959 16.209 59.51 34.626 88.654 6.458-4.708 14.413-7.486 23.017-7.486 8.603 0 16.558 2.778 23.016 7.485 18.417-29.145 34.627-64.694 34.627-88.654v-6.595c-1.532-19.035-17.835-31.527-31.169-31.527z"/><path d="m414.834 231.823c-3.226-9.93-8.542-14.609-15.832-18.222-3.007-1.49-4.185-5.116-2.628-8.089 3.774-7.209 5.323-14.121 2.097-24.05-4.084-12.568-20.938-24.351-39.615-19.897l-6.272 2.038c-22.787 7.404-51.588 33.805-73.615 60.326 9.785 7.11 16.147 18.644 16.147 31.665 0 4.23-.672 8.303-1.914 12.118 33.408 8.508 72.222 12.938 95.007 5.535l6.272-2.038c17.632-7.339 24.474-26.704 20.353-39.386z"/><path d="m377.21 324.36-3.876-5.336c-14.082-19.382-48.086-38.613-80.114-51.367-5.085 15.7-19.826 27.052-37.22 27.052-.01 0-.02 0-.031 0 2.231 34.405 10.012 72.695 24.096 92.079l3.876 5.336c12.428 14.501 32.96 15.024 43.748 7.186 8.447-6.137 11.255-12.639 12.438-20.688.488-3.32 3.572-5.561 6.881-4.999 8.022 1.361 15.075.699 23.521-5.437 10.691-7.769 16.689-27.439 6.681-43.826z"/><path d="m256 294.709c-17.393 0-32.135-11.353-37.22-27.053-32.029 12.754-66.035 31.984-80.117 51.367l-3.876 5.335c-9.951 16.301-4.103 35.989 6.684 43.827 8.447 6.137 15.498 6.798 23.519 5.436 3.308-.562 6.393 1.679 6.881 4.999 1.184 8.05 3.993 14.553 12.439 20.689 10.691 7.768 31.252 7.393 43.745-7.188l3.876-5.335c14.083-19.384 21.866-57.674 24.097-92.078-.009.001-.018.001-.028.001z"/><path d="m216.885 255.594c0-13.02 6.362-24.554 16.146-31.664-22.027-26.522-50.828-52.925-73.615-60.329l-6.272-2.038c-18.578-4.426-35.496 7.219-39.616 19.901-3.226 9.93-1.676 16.84 2.098 24.048 1.557 2.973.379 6.599-2.628 8.089-7.29 3.614-12.607 8.295-15.833 18.224-4.084 12.569 2.626 32.007 20.354 39.383l6.272 2.038c22.785 7.403 61.6 2.974 95.008-5.534-1.243-3.816-1.914-7.888-1.914-12.118z"/></g><path d="m282.475 97.188c-.605 0-1.195.012-1.771.036 1.563 3.476 2.605 7.327 2.94 11.491v6.595c0 20.828-12.25 50.414-27.55 76.938-3.472 6.019-10.74 8.639-17.307 6.368-4.007-1.385-8.308-2.138-12.786-2.138-2.809 0-5.548.296-8.189.859 4.64 9.122 9.813 18.146 15.172 26.627 6.458-4.708 14.414-7.486 23.017-7.486s16.558 2.778 23.016 7.485c18.417-29.145 34.627-64.694 34.627-88.654v-6.595c-1.532-19.035-17.835-31.526-31.169-31.526z" fill="#dd636e"/><path d="m414.834 231.823c-3.226-9.93-8.542-14.609-15.832-18.222-3.007-1.49-4.185-5.116-2.628-8.089 3.774-7.209 5.323-14.121 2.097-24.05-3.389-10.429-15.571-20.317-30.291-20.836.103.278.201.557.291.836 3.226 9.929 1.676 16.841-2.097 24.05-1.556 2.973-.378 6.599 2.628 8.089 7.29 3.613 12.606 8.292 15.832 18.222 4.121 12.682-2.721 32.047-20.353 39.386l-6.272 2.038c-15.743 5.115-39.14 4.581-63.118.955.016.462.025.926.025 1.392 0 4.23-.672 8.303-1.914 12.118 33.408 8.508 72.222 12.938 95.007 5.535l6.272-2.038c17.632-7.339 24.474-26.704 20.353-39.386z" fill="#dd636e"/><path d="m377.21 324.36-3.876-5.335c-8.712-11.991-25.049-23.924-43.826-34.302 5.612 4.694 10.332 9.493 13.826 14.302l3.876 5.335c10.007 16.387 4.01 36.057-6.682 43.825-8.446 6.136-15.498 6.799-23.521 5.437-3.308-.562-6.393 1.679-6.881 4.999-1.183 8.05-3.991 14.551-12.438 20.688-4.966 3.608-11.996 5.444-19.349 4.961.564.871 1.139 1.711 1.725 2.518l3.876 5.335c12.428 14.501 32.96 15.024 43.747 7.186 8.447-6.137 11.255-12.639 12.438-20.688.488-3.32 3.572-5.561 6.881-4.999 8.022 1.361 15.075.699 23.521-5.437 10.693-7.768 16.691-27.438 6.683-43.825z" fill="#dd636e"/><path d="m256 294.709c-12.261 0-23.204-5.641-30.375-14.47-2.675 32.902-10.36 68.196-23.693 86.547l-3.876 5.335c-6.872 8.021-16.186 11.743-24.955 12.175 1.679 5.55 4.842 10.386 11.211 15.013 10.691 7.768 31.252 7.393 43.745-7.188l3.876-5.335c14.083-19.384 21.866-57.674 24.097-92.078-.011.001-.02.001-.03.001z" fill="#dd636e"/><path d="m233.031 223.93c-19.943-24.012-45.437-47.926-66.994-57.732 9.615 8.097 19.187 17.557 28.04 27.382 4.656 5.167 4.902 12.895.706 18.443-4.957 6.555-7.897 14.72-7.897 23.571 0 .272.003.543.008.813.141 6.932-4.661 12.98-11.444 14.419-27.059 5.738-55.723 8.335-75.608 4.035 3.493 6.798 9.377 12.894 17.676 16.346l6.272 2.038c22.785 7.403 61.6 2.974 95.008-5.534-1.242-3.815-1.914-7.888-1.914-12.118.001-13.019 6.362-24.553 16.147-31.663z" fill="#dd636e"/><circle cx="256.029" cy="427.109" fill="#e28086" r="15.482"/><circle cx="419.13" cy="308.567" fill="#e28086" r="15.482"/><circle cx="356.791" cy="116.818" fill="#e28086" r="15.482"/><circle cx="155.163" cy="116.818" fill="#e28086" r="15.482"/><circle cx="92.889" cy="308.567" fill="#e28086" r="15.482"/><path d="m256 512c141.484 0 256-114.497 256-256 0-141.484-114.497-256-256-256-141.484 0-256 114.497-256 256 0 141.484 114.497 256 256 256zm0-497c132.888 0 241 108.112 241 241s-108.112 241-241 241-241-108.112-241-241 108.112-241 241-241z"/><path d="m256 476.876c42.927 0 84.549-12.328 120.367-35.649 3.471-2.26 4.453-6.906 2.193-10.377-2.261-3.472-6.908-4.454-10.377-2.193-33.376 21.732-72.168 33.22-112.182 33.22-113.521 0-205.876-92.356-205.876-205.876s92.354-205.877 205.875-205.877 205.876 92.355 205.876 205.876c0 57.281-24.152 112.43-66.264 151.307-3.043 2.81-3.233 7.555-.423 10.598 2.81 3.044 7.555 3.234 10.598.423 44.905-41.455 71.089-99.668 71.089-162.328 0-122.072-98.788-220.876-220.876-220.876-122.072 0-220.876 98.788-220.876 220.876 0 122.072 98.788 220.876 220.876 220.876z"/><path d="m390.527 280.38c5.916-1.922 6.417-2.072 6.836-2.247 21.29-8.861 29.91-32.298 24.604-48.627-3.338-10.276-8.835-16.907-18.243-21.911 4.669-9.579 5.219-18.174 1.88-28.451-5.307-16.331-26.056-30.222-48.488-24.875-.504.12-.167.029-6.85 2.201-13.66 4.438-27.957 14.402-40.615 25.279 6.433-15.4 11.493-32.077 11.493-46.439 0-6.454.013-6.729-.024-7.197-1.849-22.985-21.475-38.426-38.645-38.426-10.805 0-18.81 3.18-26.476 10.58-7.667-7.4-15.672-10.58-26.477-10.58-13.785 0-28.041 9.703-34.669 23.597-1.784 3.739-.199 8.215 3.54 9.999s8.215.199 9.999-3.54c4.666-9.779 14.37-15.056 21.131-15.056 8.237 0 12.42 2.629 16.863 7.171 5.293 5.411 13.935 5.411 19.229 0 4.441-4.542 8.624-7.17 16.861-7.17 8.821 0 22.256 8.667 23.669 24.346v6.277c0 18.298-11.248 47.912-29.631 78.43-4.044-1.99-8.417-3.411-13.013-4.157v-35.461c0-4.142-3.358-7.5-7.5-7.5s-7.5 3.358-7.5 7.5v35.461c-4.596.746-8.969 2.167-13.013 4.158-14.045-23.322-24.129-46.451-27.933-64.239-.866-4.05-4.85-6.631-8.903-5.765-4.05.866-6.632 4.852-5.765 8.903 1.872 8.755 5.099 18.627 9.451 29.104-12.65-10.868-26.949-20.839-40.602-25.275-5.904-1.919-6.411-2.097-6.852-2.201-22.432-5.344-43.182 8.549-48.488 24.879-3.339 10.276-2.789 18.871 1.88 28.449-9.408 5.005-14.905 11.636-18.243 21.911-5.307 16.332 3.314 39.768 24.606 48.625.483.2.065.046 6.835 2.246 14.383 4.674 32.549 4.647 47.676 3.414-11.392 6.974-21.02 14.196-28.214 21.27-2.953 2.904-2.993 7.653-.089 10.606 2.905 2.954 7.654 2.992 10.606.089 13.064-12.847 36.419-26.946 63.354-38.359 2.155 4.055 4.891 7.756 8.097 10.991l-20.859 28.71c-3.631 4.998.027 11.909 6.062 11.909 2.319 0 4.606-1.072 6.074-3.092l20.849-28.696c4.024 2.035 8.381 3.504 12.965 4.301-3.066 35.49-11.371 66.051-22.129 80.858l-3.689 5.077c-9.978 11.408-26.167 11.083-33.457 5.786-6.664-4.841-8.502-9.427-9.427-15.712-1.101-7.487-8.092-12.569-15.557-11.302-6.264 1.063-11.192.731-17.855-4.11-5.255-3.818-8.752-11.757-8.703-19.756.025-4.142-3.312-7.521-7.454-7.546-4.257 0-7.521 3.399-7.546 7.454-.078 12.801 5.765 25.355 14.886 31.982 8.741 6.351 17.086 8.485 27.638 7.003 1.853 10.495 6.461 17.772 15.201 24.122 14.229 10.339 39.124 8.812 53.849-8.375.337-.394.118-.122 4.249-5.807 8.442-11.62 14.151-28.079 17.999-44.319 3.847 16.24 9.557 32.7 17.999 44.319 3.761 5.177 3.946 5.454 4.25 5.808 14.67 17.117 39.574 18.745 53.851 8.373 8.741-6.351 13.348-13.627 15.2-24.121 10.553 1.477 18.898-.653 27.639-7.003 13.893-10.093 20.693-34.121 8.674-53.802-.249-.406-.092-.167-4.21-5.835-8.442-11.62-22.332-22.136-36.588-30.814 15.151 1.239 33.306 1.259 47.712-3.422zm-134.482 6.829c-21.35.03-36.689-20.825-30.168-41.223.044-.127.066-.196.1-.307 4.169-12.591 16.052-21.701 30.023-21.701 13.98 0 25.869 9.121 30.03 21.724.028.092.046.151.088.272 6.522 20.37-8.764 41.205-30.073 41.235zm-129.938-21.097-5.969-1.939c-13.932-5.962-18.626-21.461-15.842-30.031 2.545-7.833 6.338-11 12.03-13.821 6.782-3.361 9.453-11.582 5.942-18.288-2.946-5.627-4.154-10.418-1.609-18.251 2.726-8.389 15.121-18.487 30.469-14.987l5.97 1.939c17.39 5.651 42.101 25.516 65.446 52.431-3.17 3.269-5.866 7-7.977 11.081l-33.734-10.961c-3.942-1.282-8.171.875-9.451 4.815-1.28 3.939.876 8.171 4.815 9.451l33.725 10.958c-.691 4.511-.716 9.14-.075 13.662-34.69 8.041-66.379 9.582-83.74 3.941zm241.159 57.32 3.689 5.079c7.766 13.012 2.455 28.31-4.835 33.606-6.663 4.841-11.591 5.173-17.858 4.11-7.461-1.269-14.455 3.815-15.556 11.303-.924 6.285-2.763 10.87-9.426 15.711-7.136 5.185-23.099 6.07-33.458-5.784l-3.69-5.079c-10.757-14.806-19.061-45.366-22.127-80.858 4.585-.797 8.942-2.266 12.966-4.302l20.849 28.696c1.468 2.02 3.755 3.092 6.074 3.092 6.033 0 9.694-6.909 6.062-11.909l-20.859-28.711c3.206-3.235 5.942-6.936 8.097-10.992 32.81 13.886 59.313 31.23 70.072 46.038zm-65.114-61.26c.641-4.519.617-9.149-.074-13.663l33.725-10.958c3.939-1.28 6.095-5.511 4.815-9.451s-5.511-6.097-9.451-4.815l-33.735 10.961c-2.111-4.081-4.808-7.813-7.979-11.082 23.346-26.918 48.041-46.772 65.447-52.428l5.97-1.939c14.776-3.367 27.683 6.414 30.467 14.983 2.545 7.834 1.337 12.625-1.61 18.254-3.51 6.706-.839 14.925 5.943 18.287 5.691 2.82 9.484 5.986 12.029 13.82 2.726 8.389-1.365 23.844-15.84 30.033l-5.97 1.94c-17.402 5.656-49.034 4.109-83.737-3.942z"/><path d="m256.029 404.127c-12.672 0-22.982 10.31-22.982 22.982s10.31 22.982 22.982 22.982 22.981-10.31 22.981-22.982-10.309-22.982-22.981-22.982zm0 30.964c-4.401 0-7.982-3.581-7.982-7.982s3.581-7.982 7.982-7.982 7.981 3.581 7.981 7.982-3.58 7.982-7.981 7.982z"/><path d="m396.148 308.567c0 12.672 10.31 22.982 22.981 22.982 12.672 0 22.982-10.31 22.982-22.982s-10.31-22.982-22.982-22.982c-12.671 0-22.981 10.31-22.981 22.982zm22.981-7.982c4.401 0 7.982 3.581 7.982 7.982s-3.581 7.982-7.982 7.982-7.981-3.581-7.981-7.982 3.581-7.982 7.981-7.982z"/><path d="m379.772 116.818c0-12.672-10.31-22.982-22.982-22.982s-22.981 10.31-22.981 22.982 10.31 22.982 22.981 22.982c12.673 0 22.982-10.309 22.982-22.982zm-30.963 0c0-4.401 3.581-7.982 7.981-7.982 4.401 0 7.982 3.581 7.982 7.982s-3.581 7.982-7.982 7.982c-4.4 0-7.981-3.58-7.981-7.982z"/><path d="m178.145 116.818c0-12.672-10.31-22.982-22.982-22.982s-22.981 10.31-22.981 22.982 10.31 22.982 22.981 22.982c12.672 0 22.982-10.309 22.982-22.982zm-30.964 0c0-4.401 3.581-7.982 7.981-7.982 4.401 0 7.982 3.581 7.982 7.982s-3.581 7.982-7.982 7.982c-4.4 0-7.981-3.58-7.981-7.982z"/><path d="m92.889 285.585c-12.672 0-22.982 10.31-22.982 22.982s10.31 22.982 22.982 22.982 22.982-10.31 22.982-22.982-10.31-22.982-22.982-22.982zm0 30.964c-4.401 0-7.982-3.581-7.982-7.982s3.581-7.982 7.982-7.982 7.982 3.581 7.982 7.982-3.581 7.982-7.982 7.982z"/></g></svg>