<svg height="512pt" viewBox="-71 0 512 512" width="512pt" xmlns="http://www.w3.org/2000/svg"><path d="m185.308594 404.59375-28.117188 48.703125c-12.5 21.644531 3.125 48.703125 28.117188 48.703125 24.996094 0 40.617187-27.058594 28.121094-48.703125zm0 0" fill="#ffc838"/><path d="m248.144531 329.328125h-125.667969c-62.121093 0-112.476562-50.355469-112.476562-112.476563 0-62.117187 50.355469-112.476562 112.476562-112.476562h125.667969c62.121094 0 112.476563 50.359375 112.476563 112.476562 0 62.121094-50.355469 112.476563-112.476563 112.476563zm0 0" fill="#fc5f53"/><path d="m185.308594 329.328125c62.121094 0 112.476562-50.355469 112.476562-112.476563 0-62.117187-50.355468-112.476562-112.476562-112.476562" fill="#ff87af"/><path d="m185.308594 104.375c-62.117188 0-112.476563 50.355469-112.476563 112.476562 0 62.117188 50.359375 112.476563 112.476563 112.476563v-128.996094" fill="#ff415b"/><path d="m185.308594 164c-.648438 0-1.308594-.058594-1.949219-.191406-.640625-.128906-1.269531-.328125-1.871094-.578125-.609375-.25-1.1875-.558594-1.726562-.921875-.550781-.359375-1.0625-.777344-1.523438-1.238282-.457031-.460937-.878906-.96875-1.238281-1.519531-.359375-.539062-.671875-1.121093-.921875-1.722656-.25-.609375-.449219-1.238281-.566406-1.878906-.132813-.640625-.203125-1.300781-.203125-1.949219 0-2.628906 1.070312-5.210938 2.929687-7.070312.460938-.460938.972657-.878907 1.523438-1.238282.539062-.363281 1.117187-.671875 1.726562-.921875.601563-.25 1.230469-.449219 1.871094-.570312 1.289063-.257813 2.621094-.257813 3.902344 0 .636719.121093 1.269531.320312 1.867187.570312.609375.25 1.191406.558594 1.730469.921875.550781.359375 1.058594.777344 1.519531 1.238282 1.859375 1.859374 2.929688 4.441406 2.929688 7.070312 0 .648438-.070313 1.308594-.199219 1.949219-.121094.640625-.320313 1.269531-.570313 1.878906-.25.601563-.558593 1.183594-.917968 1.722656-.359375.550781-.78125 1.058594-1.242188 1.519531-.457031.460938-.96875.878907-1.519531 1.238282-.539063.363281-1.121094.671875-1.730469.921875-.597656.25-1.226562.449219-1.867187.578125-.640625.132812-1.300781.191406-1.953125.191406zm0 0"/><path d="m83.914062 66.964844h202.792969v37.410156h-202.792969zm0 0" fill="#fbe37b"/><path d="m83.914062 329.328125h202.792969v37.414063h-202.792969zm0 0" fill="#fbe37b"/><path d="m370.621094 216.851562c0-50.289062-30.46875-93.597656-73.914063-112.4375 0-.011718 0-.023437 0-.039062v-37.414062c0-5.523438-4.476562-10-10-10h-55.980469c2.640626-11.289063.9375-23.21875-5.105468-33.6875-8.414063-14.574219-23.484375-23.273438-40.3125-23.273438-16.824219 0-31.894532 8.699219-40.308594 23.273438-6.046875 10.46875-7.746094 22.398437-5.105469 33.6875h-55.980469c-5.523437 0-10 4.476562-10 10v37.414062.039062c-43.445312 18.839844-73.914062 62.144532-73.914062 112.4375 0 50.289063 30.46875 93.597657 73.914062 112.4375v.039063 37.414063c0 5.523437 4.476563 10 10 10h91.394532v25.171874l-26.777344 46.382813c-7.679688 13.296875-7.679688 29.171875 0 42.46875 7.675781 13.296875 21.425781 21.234375 36.777344 21.234375 15.355468 0 29.105468-7.9375 36.78125-21.234375 7.675781-13.296875 7.675781-29.171875 0-42.46875l-26.78125-46.382813v-25.171874h91.398437c5.523438 0 10-4.476563 10-10v-37.414063c0-.011719 0-.027344 0-.039063 43.445313-18.839843 73.914063-62.144531 73.914063-112.4375zm-165.851563 263.914063c-4.0625 7.035156-11.335937 11.234375-19.460937 11.234375-8.121094 0-15.398438-4.199219-19.457032-11.234375-4.0625-7.035156-4.0625-15.433594 0-22.46875l19.457032-33.703125 19.460937 33.703125c4.058594 7.035156 4.058594 15.433594 0 22.46875zm-9.460937-161.921875v-118.511719c0-5.523437-4.476563-10-10-10-5.523438 0-10 4.476563-10 10v118.511719c-51.832032-5.039062-92.476563-48.859375-92.476563-101.992188 0-56.507812 45.972657-102.476562 102.476563-102.476562 56.507812 0 102.480468 45.96875 102.480468 102.476562 0 53.132813-40.648437 96.949219-92.480468 101.992188zm-32.988282-285.570312c4.796876-8.3125 13.394532-13.273438 22.988282-13.273438 9.597656 0 18.191406 4.960938 22.992187 13.273438 4.257813 7.375 4.734375 16.027343 1.433594 23.6875h-48.847656c-3.304688-7.660157-2.828125-16.3125 1.433593-23.6875zm-68.40625 61.101562v-17.414062h182.792969v17.414062zm-73.917968 122.476562c0-55.0625 43.652344-100.117187 98.164062-102.386718-33.300781 21.914062-55.328125 59.628906-55.328125 102.386718 0 42.761719 22.027344 80.472657 55.328125 102.386719-54.511718-2.269531-98.164062-47.324219-98.164062-102.386719zm256.710937 122.476563v17.414063h-182.792969v-17.414063zm-24.25-20.089844c33.304688-21.914062 55.332031-59.625 55.332031-102.386719 0-42.757812-22.027343-80.472656-55.332031-102.386718 54.515625 2.269531 98.164063 47.324218 98.164063 102.386718s-43.648438 100.117188-98.164063 102.386719zm0 0"/></svg>