<svg id="_x33_0" enable-background="new 0 0 62 62.038" height="512" viewBox="0 0 62 62.038" width="512" xmlns="http://www.w3.org/2000/svg" xmlns:xlink="http://www.w3.org/1999/xlink"><linearGradient id="SVGID_1_" gradientUnits="userSpaceOnUse" x1="31" x2="31" y1="62.038" y2="0"><stop offset="0" stop-color="#9f2fff"/><stop offset="1" stop-color="#0bb1d3"/></linearGradient><path d="m31 40c-1.654 0-3 1.346-3 3s1.346 3 3 3 3-1.346 3-3-1.346-3-3-3zm0 4c-.551 0-1-.448-1-1s.449-1 1-1 1 .448 1 1-.449 1-1 1zm-7-1c0 .552-.448 1-1 1s-1-.448-1-1 .448-1 1-1 1 .448 1 1zm-6 0c0 .552-.448 1-1 1s-1-.448-1-1 .448-1 1-1 1 .448 1 1zm22 0c0 .552-.448 1-1 1s-1-.448-1-1 .448-1 1-1 1 .448 1 1zm6 0c0 .552-.448 1-1 1s-1-.448-1-1 .448-1 1-1 1 .448 1 1zm-22-19h-2v-2h2v-2h2v2h2v2h-2v4h-2zm31 0c3.86 0 7-3.141 7-7s-3.14-7-7-7c-2.757 0-5 2.243-5 5s2.243 5 5 5c1.654 0 3-1.346 3-3s-1.346-3-3-3h-1v2h1c.551 0 1 .448 1 1s-.449 1-1 1c-1.654 0-3-1.346-3-3s1.346-3 3-3c2.757 0 5 2.243 5 5s-2.243 5-5 5c-3.86 0-7-3.141-7-7v-4c0-6.065-4.935-11-11-11-2.548 0-4.775 1.373-6 3.413-1.225-2.04-3.452-3.413-6-3.413-6.065 0-11 4.935-11 11v4c0 3.859-3.14 7-7 7-2.757 0-5-2.243-5-5s2.243-5 5-5c1.654 0 3 1.346 3 3s-1.346 3-3 3c-.551 0-1-.448-1-1s.449-1 1-1h1v-2h-1c-1.654 0-3 1.346-3 3s1.346 3 3 3c2.757 0 5-2.243 5-5s-2.243-5-5-5c-3.86 0-7 3.141-7 7s3.14 7 7 7c1.849 0 3.569-.562 5-1.522v8.468l-4.359-1.453 3.183 14.324c-.918-1.1-2.282-1.817-3.824-1.817-3.86 0-7 3.141-7 7s3.14 7 7 7h13.135c2.987 2.784 6.622 4.859 10.598 5.964l.267.074.268-.074c3.976-1.105 7.611-3.18 10.598-5.964h13.134c3.86 0 7-3.141 7-7s-3.14-7-7-7c-1.542 0-2.906.717-3.824 1.818l3.183-14.324-4.359 1.452v-8.468c1.431.96 3.151 1.522 5 1.522zm-39.059-8c.037-.329.059-.662.059-1v-1h30v1c0 .338.022.671.059 1zm13.948-4c.429-.42.8-.896 1.111-1.413.311.517.682.994 1.111 1.413zm7.111-10c4.962 0 9 4.037 9 9v1h-5.026c.635-.838 1.026-1.87 1.026-3 0-2.757-2.243-5-5-5-1.654 0-3 1.346-3 3s1.346 3 3 3h1v-2h-1c-.551 0-1-.448-1-1s.449-1 1-1c1.654 0 3 1.346 3 3s-1.346 3-3 3c-2.757 0-5-2.243-5-5s2.243-5 5-5zm-12 0c2.757 0 5 2.243 5 5s-2.243 5-5 5c-1.654 0-3-1.346-3-3s1.346-3 3-3c.551 0 1 .448 1 1s-.449 1-1 1h-1v2h1c1.654 0 3-1.346 3-3s-1.346-3-3-3c-2.757 0-5 2.243-5 5 0 1.13.391 2.162 1.026 3h-5.026v-1c0-4.963 4.038-9 9-9zm-11 18.644c.633-.784 1.131-1.677 1.475-2.644h.525v12h2v-12h12v10.586l-4.217 4.217 1.599 3.197h-3.101l.86-3.441-4.141-2.761-4.141 2.761.86 3.441h-2.438l.914-3.656-2.195-.732zm-12 28.356c0-2.757 2.243-5 5-5 1.654 0 3 1.346 3 3s-1.346 3-3 3c-.551 0-1-.448-1-1s.449-1 1-1h1v-2h-1c-1.654 0-3 1.346-3 3s1.346 3 3 3c2.313 0 4.246-1.587 4.815-3.725l.383 1.725h3.176c.816 1.427 1.765 2.766 2.832 4h-11.206c-2.757 0-5-2.243-5-5zm29 10.96c-5.468-1.59-10.204-5.178-13.268-9.96h2.426c2.623 3.597 6.332 6.349 10.522 7.764l.32.108.32-.108c4.19-1.414 7.9-4.167 10.522-7.764h2.426c-3.064 4.782-7.8 8.37-13.268 9.96zm1-9.96h7.299c-1.986 2.325-4.499 4.17-7.299 5.354zm-2 5.354c-2.8-1.184-5.313-3.03-7.299-5.354h7.299zm25-3.354c1.654 0 3-1.346 3-3s-1.346-3-3-3h-1v2h1c.551 0 1 .448 1 1s-.449 1-1 1c-1.654 0-3-1.346-3-3s1.346-3 3-3c2.757 0 5 2.243 5 5s-2.243 5-5 5h-11.205c1.066-1.234 2.015-2.573 2.832-4h3.176l.383-1.725c.568 2.138 2.501 3.725 4.814 3.725zm-6.802-4h-34.396l-3.443-15.493 3.446 1.149-1.086 4.344h7.562l-1.14-4.559 1.859-1.239 1.859 1.239-1.14 4.559h8.899l-2.401-4.803 2.783-2.783 2.783 2.783-2.401 4.803h8.899l-1.14-4.559 1.859-1.239 1.859 1.239-1.14 4.559h7.562l-1.086-4.344 3.446-1.149zm-2.393-15.656.914 3.656h-2.438l.86-3.441-4.141-2.761-4.141 2.761.86 3.441h-3.101l1.599-3.197-4.217-4.217v-10.586h12v12h2v-12h.525c.344.967.842 1.861 1.475 2.644v10.968zm-7.805-10.344h2v2h-2v4h-2v-4h-2v-2h2v-2h2z" fill="url(#SVGID_1_)"/></svg>