<svg id="Layer_2_copy" height="512" viewBox="0 0 64 64" width="512" xmlns="http://www.w3.org/2000/svg" xmlns:xlink="http://www.w3.org/1999/xlink" data-name="Layer 2 copy"><linearGradient id="linear-gradient" gradientUnits="userSpaceOnUse" x1="61.5" x2="-2.57" y1="-1.5" y2="62.57"><stop offset="0" stop-color="#f7941e"/><stop offset="1" stop-color="#ee2a7b"/></linearGradient><linearGradient id="linear-gradient-2" x1="64.5" x2=".43" xlink:href="#linear-gradient" y1="1.5" y2="65.57"/><linearGradient id="linear-gradient-3" x1="83" x2="18.93" xlink:href="#linear-gradient" y1="20" y2="84.07"/><linearGradient id="linear-gradient-4" x1="80" x2="15.93" xlink:href="#linear-gradient" y1="17" y2="81.07"/><linearGradient id="linear-gradient-5" x1="86" x2="21.93" xlink:href="#linear-gradient" y1="23" y2="87.07"/><linearGradient id="linear-gradient-6" x1="71.396" x2="7.326" xlink:href="#linear-gradient" y1="8.396" y2="72.467"/><linearGradient id="linear-gradient-7" x1="45.5" x2="-18.57" xlink:href="#linear-gradient" y1="-17.5" y2="46.57"/><linearGradient id="linear-gradient-8" x1="64" x2="-.07" xlink:href="#linear-gradient" y1="1" y2="65.07"/><linearGradient id="linear-gradient-9" x1="71" x2="6.93" xlink:href="#linear-gradient" y1="8" y2="72.07"/><linearGradient id="linear-gradient-10" x1="53.75" x2="-10.32" xlink:href="#linear-gradient" y1="-9.25" y2="54.82"/><path d="m12 50a1 1 0 0 0 1-1v-2a1 1 0 0 0 -2 0v2a1 1 0 0 0 1 1z" fill="url(#linear-gradient)"/><path d="m11 55a1 1 0 0 0 2 0v-2a1 1 0 0 0 -2 0z" fill="url(#linear-gradient-2)"/><path d="m52 51a1 1 0 0 0 2 0v-2a1 1 0 0 0 -2 0z" fill="url(#linear-gradient-3)"/><path d="m53 46a1 1 0 0 0 1-1v-2a1 1 0 0 0 -2 0v2a1 1 0 0 0 1 1z" fill="url(#linear-gradient-4)"/><path d="m52 57a1 1 0 0 0 2 0v-2a1 1 0 0 0 -2 0z" fill="url(#linear-gradient-5)"/><path d="m58 34a1 1 0 0 0 -1.555-.832l-9 6a1 1 0 0 0 -.445.832v4a1 1 0 0 0 2 0v-3.465l7-4.667v26.132h-7v-14a1 1 0 0 0 -2 0v14h-6.937l-3.8-10.459a6.979 6.979 0 0 0 -.263-11.277v-5.264a1 1 0 0 0 -2 0v4.294a6.93 6.93 0 0 0 -4 0v-10.589a6.93 6.93 0 0 0 4 0v2.295a1 1 0 0 0 2 0v-3.264a6.988 6.988 0 0 0 -3-12.656v-7.08h1a1 1 0 0 0 0-2h-1v-5a1 1 0 0 0 -2 0v5h-1a1 1 0 0 0 0 2h1v7.08a6.988 6.988 0 0 0 -3 12.656v12.528a6.979 6.979 0 0 0 -.261 11.277l-3.802 10.459h-6.937v-20a1 1 0 0 0 -1-1h-9a1 1 0 0 0 -1 1v6a1 1 0 0 0 2 0v-5h7v19h-7v-10a1 1 0 0 0 -2 0v10h-6v2h64v-2h-6zm-31-12a5 5 0 1 1 5 5 5.006 5.006 0 0 1 -5-5zm10.936 40h-4.936v-9.08a6.933 6.933 0 0 0 1.494-.387zm-10.936-16a5 5 0 1 1 5 5 5.006 5.006 0 0 1 -5-5zm2.506 6.533a6.931 6.931 0 0 0 1.494.387v9.08h-4.936z" fill="url(#linear-gradient-6)"/><path d="m10 20a1 1 0 0 0 0-2h-2a1 1 0 0 0 0 2z" fill="url(#linear-gradient-7)"/><path d="m59 9a1 1 0 0 0 0-2h-4a1 1 0 0 0 0 2z" fill="url(#linear-gradient-8)"/><path d="m63 25h-.112a4.485 4.485 0 0 0 -7.666-2.062 5.427 5.427 0 0 0 -4.722-2.938 5.773 5.773 0 0 0 -5.5 6v1h-4a1 1 0 0 0 0 2h5a1 1 0 0 0 1-1v-2a3.78 3.78 0 0 1 3.5-4 3.78 3.78 0 0 1 3.5 4 1 1 0 0 0 2 0 2.5 2.5 0 0 1 5 0 1 1 0 0 0 1 1h1a1 1 0 0 0 0-2z" fill="url(#linear-gradient-9)"/><path d="m0 33a1 1 0 0 0 1 1h8a1 1 0 0 0 1-1v-2a4 4 0 0 1 8 0 1 1 0 0 0 1 1h5a1 1 0 0 0 0-2h-4.083a6 6 0 0 0 -11.917 1v1h-7a1 1 0 0 0 -1 1z" fill="url(#linear-gradient-10)"/></svg>