<svg id="Capa_1" enable-background="new 0 0 512 512" height="512" viewBox="0 0 512 512" width="512" xmlns="http://www.w3.org/2000/svg"><g><path d="m386.034 372.115h30.072v30h-58.22v-15c0-17.344-14.11-31.454-31.455-31.454l-20-14.902 20-15.098c28.714 0 52.891 19.795 59.603 46.454z" fill="#daac5c"/><path d="m125.966 372.115h-30.072v30h58.22v-15c0-17.344 14.11-31.454 31.455-31.454l20-14.902-20-15.098c-28.714 0-52.891 19.795-59.603 46.454z" fill="#fc6"/><path d="m0 115.831v62.051c0 27.253 22.093 49.345 49.346 49.345 0 27.253 22.093 49.345 49.346 49.345 0 27.253 22.093 49.345 49.346 49.345h67.532l-30-156.976z" fill="#ffe666"/><path d="m512 115.831v62.051c0 27.253-22.093 49.345-49.346 49.345 0 27.253-22.093 49.345-49.346 49.345 0 27.253-22.093 49.345-49.346 49.345h-67.532l30-156.976z" fill="#fc6"/><path d="m256 84.564h-127.307v-14.756c0-27.05 21.928-48.979 48.979-48.979h46.623z" fill="#ffe666"/><path d="m256 84.564h127.307v-14.756c0-27.05-21.928-48.979-48.979-48.979h-46.623z" fill="#fc6"/><path d="m326.43 168.94v56.92l-70.43 20-70.43-20v-56.92l70.43-84.38z" fill="#fc6"/><path d="m329.01 460.86c-9.33 9.37-20.45 16.94-32.8 22.18-12.36 5.23-25.95 8.13-40.21 8.13-28.47 0-54.24-11.54-72.9-30.19l-.11-.12 73.01-73.01z" fill="#ffe666"/><path d="m326.43 225.86-70.43 20v-161.3l70.43 84.38z" fill="#daac5c"/><path d="m329.01 460.86c-9.33 9.37-20.45 16.94-32.8 22.18-12.36 5.23-25.95 8.13-40.21 8.13v-103.32z" fill="#fc6"/><g><g><path d="m326.43 225.86v129.8h-38.24l-32.19 32.19-32.19-32.19h-38.24v-129.8z" fill="#ff6c6c"/><path d="m326.43 225.86v129.8h-38.24l-32.19 32.19v-161.99z" fill="#ff293e"/></g><g><path d="m256 278 10 15-10 15h-15v-30z" fill="#fff5f5"/><path d="m256 278h15v30h-15z" fill="#ece6f2"/></g></g></g></svg>