<svg id="Capa_1" enable-background="new 0 0 512 512" height="512" viewBox="0 0 512 512" width="512" xmlns="http://www.w3.org/2000/svg"><g><g><path d="m427.476 7.5h-342.952c-28.11 0-50.897 22.787-50.897 50.897v234.62c0 38.193 12.899 75.355 36.952 105.023 52.335 64.552 127.181 92.833 163.702 103.384 14.194 4.101 29.242 4.101 43.437 0 36.522-10.551 111.367-38.832 163.702-103.384 24.053-29.668 36.952-66.83 36.952-105.023v-234.62c.001-28.11-22.786-50.897-50.896-50.897z" fill="#f9f097"/><path d="m112.705 195.937c0-72.282 26.973-138.254 71.384-188.438h-99.565c-28.11 0-50.897 22.788-50.897 50.897v234.62c0 38.193 12.899 75.355 36.952 105.023 30.933 38.154 69.727 63.631 103.826 80.271-36.055-49.761-61.7-136.845-61.7-282.373z" fill="#f8e86a"/><path d="m256 448.68c-2.104 0-4.198-.296-6.224-.882-26.305-7.6-92.199-31.088-135.837-84.912-15.794-19.481-24.492-44.294-24.492-69.869v-229.697h333.105v229.697c0 25.576-8.698 50.389-24.492 69.869-43.638 53.825-109.531 77.312-135.835 84.912-2.027.586-4.121.882-6.225.882z" fill="#7292df"/><path d="m234.479 166.257s-68.221-39.797-104.16 11.98c-6.678 9.621-3.754 23.002 6.243 29.103 14.751 9.002 35.986 25.775 49.971 53.378l69.467 2.984z" fill="#ffca8a"/><path d="m277.521 166.257s68.221-39.797 104.16 11.98c6.678 9.621 3.754 23.002-6.243 29.103-14.751 9.002-35.986 25.775-49.971 53.378l-69.467 2.984z" fill="#ffca8a"/><path d="m273.684 121.206c-10.373-8.244-24.996-8.244-35.369 0-61.341 48.748-25.595 111.608-25.595 111.608l43.28 30.888 43.279-30.888c0 .001 35.746-62.86-25.595-111.608z" fill="#f9f097"/><path d="m243.48 279.659c-17.454-5.594-37.344-1.48-51.197 12.373-10.277 10.277-15.194 23.876-14.764 37.339.284 8.879 7.369 15.965 16.249 16.25 13.463.43 27.063-4.487 37.34-14.764 13.852-13.853 17.967-33.744 12.372-51.198z" fill="#ffca8a"/><path d="m268.52 279.659c17.454-5.594 37.344-1.48 51.197 12.373 10.277 10.277 15.194 23.876 14.764 37.339-.284 8.879-7.369 15.965-16.249 16.25-13.463.43-27.063-4.487-37.34-14.764-13.852-13.853-17.967-33.744-12.372-51.198z" fill="#ffca8a"/><path d="m256 270.028c-16.297 8.386-27.453 25.36-27.453 44.951 0 14.533 6.139 27.627 15.963 36.842 6.479 6.078 16.5 6.078 22.98 0 9.824-9.215 15.964-22.309 15.964-36.843-.001-19.59-11.156-36.564-27.454-44.95z" fill="#f9f097"/><path d="m299.279 232.815h-86.558c-17.059 0-30.888 13.829-30.888 30.888s13.829 30.888 30.888 30.888h86.558c17.059 0 30.888-13.829 30.888-30.888s-13.829-30.888-30.888-30.888z" fill="#ffbe73"/><path d="m112.705 195.937c0-47.896 11.854-93.016 32.762-132.617h-56.02v229.697c0 25.575 8.698 50.389 24.492 69.869 5.83 7.19 12.059 13.834 18.535 19.977-12.395-47.681-19.769-108.901-19.769-186.926z" fill="#5c84d9"/></g><g><path d="m232.2 508.626c15.418 4.454 31.874 4.543 47.599 0 21.392-6.181 54.047-17.828 88.13-38.221 3.554-2.127 4.711-6.732 2.585-10.287-2.127-3.556-6.734-4.711-10.287-2.585-32.702 19.567-64.051 30.748-84.591 36.682-12.845 3.712-26.426 3.712-39.273 0-38.115-11.012-109.578-38.762-159.957-100.901-22.749-28.06-35.278-63.68-35.278-100.299v-234.618c.001-23.929 19.468-43.397 43.397-43.397h342.949c23.929 0 43.397 19.468 43.397 43.397v234.618c0 36.618-12.529 72.239-35.278 100.299-14.128 17.425-31.103 33.468-50.456 47.685-3.338 2.452-4.057 7.146-1.604 10.485 2.453 3.338 7.146 4.056 10.484 1.604 20.385-14.975 38.293-31.906 53.227-50.327 24.909-30.723 38.626-69.698 38.626-109.745v-234.619c0-32.2-26.197-58.397-58.397-58.397h-342.948c-32.2 0-58.397 26.197-58.397 58.397v234.618c0 40.048 13.718 79.023 38.626 109.745 52.959 65.321 127.642 94.366 167.446 105.866z"/><path d="m89.449 148.767c-4.142 0-7.5 3.358-7.5 7.5v136.747c0 27.29 9.292 53.78 26.166 74.592 44.976 55.474 112.595 79.597 139.578 87.393 5.407 1.563 11.164 1.575 16.614 0 26.985-7.796 94.604-31.919 139.579-87.393 16.873-20.812 26.166-47.303 26.166-74.592v-229.694c0-4.142-3.358-7.5-7.5-7.5h-333.103c-4.142 0-7.5 3.358-7.5 7.5v62.948c0 4.142 3.358 7.5 7.5 7.5s7.5-3.358 7.5-7.5v-55.448h318.103v222.195c0 23.861-8.103 46.996-22.817 65.145-42.299 52.172-106.466 75.025-132.091 82.429-2.697.779-5.59.779-8.286 0-25.624-7.404-89.792-30.256-132.092-82.429-14.714-18.149-22.817-41.284-22.817-65.145v-136.748c0-4.142-3.358-7.5-7.5-7.5z"/><path d="m379.345 213.74c13.679-8.348 17.618-26.643 8.497-39.781-17.96-25.874-46.845-35.237-81.781-26.722-5.943-10.745-14.788-21.635-27.709-31.903-13.161-10.458-31.542-10.458-44.701 0-12.921 10.268-21.767 21.158-27.71 31.903-34.937-8.515-63.822.849-81.781 26.722-9.105 13.117-5.208 31.418 8.497 39.781 12.381 7.556 29.572 20.919 42.505 42.04-.538 2.557-.826 5.205-.826 7.92 0 9.946 3.803 19.02 10.03 25.846-9.611 10.996-14.811 25.382-14.341 40.062.389 12.172 9.961 23.535 25.338 23.535 11.771 0 23.269-3.631 32.89-10.229 2.913 5.304 6.648 10.173 11.126 14.374 4.661 4.372 10.64 6.558 16.621 6.558 5.98 0 11.961-2.186 16.621-6.557 4.478-4.201 8.214-9.07 11.127-14.374 10.178 6.98 22.381 10.594 34.723 10.199 12.772-.409 23.097-10.734 23.505-23.506.469-14.68-4.73-29.065-14.341-40.061 6.227-6.827 10.031-15.9 10.031-25.846 0-2.715-.288-5.363-.826-7.92 12.933-21.123 30.124-34.485 42.505-42.041zm-80.067 73.348c-25.763 0-59.927 0-86.557 0-12.772 0-23.387-10.38-23.387-23.388 0-12.734 10.336-23.388 23.386-23.388h.001 86.556c13.021 0 23.388 10.628 23.388 23.388.001 12.86-10.475 23.388-23.387 23.388zm-56.296-160.011c7.664-6.092 18.371-6.091 26.036 0 11.101 8.823 20.398 19.322 26.343 32.132 13.227 28.45 3.562 56.224-.782 66.104h-77.158c-4.351-9.895-14.006-37.662-.783-66.104 5.981-12.875 15.28-23.339 26.344-32.132zm-102.512 73.859c-6.356-3.879-8.19-12.372-3.989-18.425 12.331-17.765 29.149-23.339 45.402-23.339 6.099 0 12.122.786 17.794 2.006-9.493 27.358-2.976 52.491 2.121 65.693-7.622 2.235-14.314 6.772-19.196 12.963-13.624-19.03-29.97-31.475-42.132-38.898zm82.154 127.501c-8.036 6.607-18.035 10.022-28.616 9.684-4.886-.156-8.836-4.106-8.993-8.993-.367-11.476 3.691-22.294 11.457-30.641 4.928 2.302 10.559 3.601 16.249 3.601h9.761c-1.907 8.391-1.905 17.762.142 26.349zm39.735 17.912c-3.566 3.345-9.153 3.345-12.718 0-5.299-4.971-9.146-11.011-11.371-17.66-.019-.062-.027-.125-.048-.187-2.707-8.173-3-17.536-.204-26.414h35.963c2.741 8.701 2.565 18.054-.204 26.414-.02.061-.029.124-.047.186-2.224 6.649-6.072 12.69-11.371 17.661zm64.625-17.221c-.156 4.887-4.106 8.837-8.993 8.993-10.569.34-20.579-3.077-28.616-9.684 1.998-8.38 2.14-17.559.141-26.349h9.762c5.649 0 11.327-1.293 16.248-3.601 7.766 8.346 11.825 19.164 11.458 30.641zm2.413-89.293c-4.882-6.191-11.574-10.727-19.196-12.963 5.096-13.202 11.614-38.335 2.121-65.693 20.787-4.474 46.237-3.099 63.197 21.332 4.195 6.044 2.374 14.541-3.989 18.425-12.162 7.423-28.508 19.867-42.133 38.899z"/></g></g></svg>