<svg height="512" viewBox="0 0 58 58" width="512" xmlns="http://www.w3.org/2000/svg"><g id="016---Russian-Army-Flag" fill="none" transform="translate(-1)"><path id="Shape" d="m37.32 16.05 16.05-16.05h5.63v5.63l-21.33 21.35h-6.67z" fill="#bdc3c7"/><path id="Shape" d="m32.01 26.98h5.66l21.33-21.35v-5.63z" fill="#95a5a5"/><path id="Shape" d="m15.68 48.14-6.68-6.66c-.34957636-.3821091-.34957636-.9678909 0-1.35l1.47-1.47c.3821091-.3495764.9678909-.3495764 1.35 0l2.18 2.16z" fill="#3f5c6c"/><path id="Rectangle-path" d="m7.111 44.419h5.97v8.95h-5.97z" fill="#a56a43" transform="matrix(-.707 -.707 .707 -.707 -17.338 90.605)"/><path id="Rectangle-path" d="m9.662 45.48h2.98v8.95h-2.98z" fill="#805333" transform="matrix(-.707 -.707 .707 -.707 -16.286 93.165)"/><rect id="Rectangle-path" fill="#3f5c6c" height="3.98" rx=".95" transform="matrix(-.707 -.707 .707 -.707 -28.368 95.184)" width="9.95" x=".554" y="51.477"/><path id="Shape" d="m22.68 16.05-16.05-16.05h-5.63v5.63l21.33 21.35h6.67z" fill="#bdc3c7"/><path id="Shape" d="m27.99 26.98h-5.66l-21.33-21.35v-5.63z" fill="#95a5a5"/><path id="Shape" d="m44.32 48.14 6.68-6.66c.3495764-.3821091.3495764-.9678909 0-1.35l-1.47-1.47c-.3821091-.3495764-.9678909-.3495764-1.35 0l-2.18 2.16z" fill="#3f5c6c"/><path id="Shape" d="m37 27.61c-4.2732063-2.710091-9.7267937-2.710091-14 0 0-8-.09-8.2.1-8.2 4.1600318-1.760992 8.8359542-1.8647423 13.07-.29.2705864.0878038.5345857.1947402.79.32.1 0 .04-.31.04 8.17z" fill="#3d324c"/><path id="Shape" d="m33 28c-.5522847 0-1-.4477153-1-1v-10c0-.5522847.4477153-1 1-1s1 .4477153 1 1v10c0 .5522847-.4477153 1-1 1z" fill="#b49aca"/><circle id="Oval" cx="30" cy="41" fill="#5d4c72" r="16"/><path id="Shape" d="m25.21 31c-.478667.0088487-.8964554-.3228028-.9964341-.7909958s.1459034-.9415658.5864341-1.1290042c1.6398403-.7162166 3.4105793-1.0839855 5.2-1.08.5522847 0 1 .4477153 1 1s-.4477153 1-1 1c-1.641024.0658004-3.2597206.4037329-4.79 1z" fill="#b49aca"/><path id="Shape" d="m18 42c-.5522847 0-1-.4477153-1-1 .0021158-3.1633866 1.1576152-6.2174602 3.25-8.59.3647578-.4137044.9956033-.4539711 1.41-.09.4137044.3647578.4539711.9956033.09 1.41-1.7708296 2.0079312-2.748584 4.5927583-2.75 7.27 0 .5522847-.4477153 1-1 1z" fill="#b49aca"/><path id="Shape" d="m38.63 19.12c.0678476.3527986-.0587693.7148794-.3316883.9485146-.2729189.2336351-.6501917.3029144-.9883117.1814854l-.41-.13c-4.232738-1.3991193-8.7906558-1.4793275-13.07-.23-.3.07-.85.26-1.14.36-.33812.121429-.7153928.0521497-.9883117-.1814854-.272919-.2336352-.3995359-.595716-.3316883-.9485146l.57-2.84c5.2369752-1.711955 10.8830248-1.711955 16.12 0z" fill="#5d4c72"/><path id="Shape" d="m37 16c-4.5788894-1.2800426-9.4211106-1.2800426-14 0-1.2219771-1.3587049-1.6054-3.2758196-1-5 1-3 6-5 4-10 0 0 7 3 6 7 .8918382-.81616043 1.9036065-1.49067264 3-2 2.7-1.34 2.07-5.58 2-6 .4.69 6.77 12.07 0 16z" fill="#f29c1f"/><path id="Rectangle-path" d="m46.907 44.415h5.97v8.95h-5.97z" fill="#a56a43" transform="matrix(.707 -.707 .707 .707 -19.957 49.599)"/><path id="Rectangle-path" d="m47.349 45.473h2.98v8.95h-2.98z" fill="#805333" transform="matrix(.707 -.707 .707 .707 -21.014 49.164)"/><rect id="Rectangle-path" fill="#3f5c6c" height="3.98" rx=".95" transform="matrix(.707 -.707 .707 .707 -21.858 54.177)" width="9.95" x="49.494" y="51.484"/></g></svg>